HIERARCHY
ROOT pelvis
{
	OFFSET 0.000000 0.000000 0.000000
	CHANNELS 6 Xposition Yposition Zposition Zrotation Xrotation Yrotation
	JOINT lfemur
	{
		OFFSET 11.446000 0.000000 0.000000
		CHANNELS 3 Zrotation Xrotation Yrotation
		JOINT ltibia
		{
			OFFSET 0.000000 -42.030400 0.000000
			CHANNELS 3 Zrotation Xrotation Yrotation
			JOINT lfoot
			{
				OFFSET 0.000000 -39.930200 0.000000
				CHANNELS 3 Zrotation Xrotation Yrotation
				JOINT ltoes
				{
					OFFSET 0.000000 0.000000 11.775800
					CHANNELS 3 Zrotation Xrotation Yrotation
					End Site
					{
					    OFFSET 0.000000 0.000000 5.000000
					}
				}
			}
		}
	}
	JOINT rfemur
	{
		OFFSET -11.446000 0.000000 0.000000
		CHANNELS 3 Zrotation Xrotation Yrotation
		JOINT rtibia
		{
			OFFSET 0.000000 -42.030400 0.000000
			CHANNELS 3 Zrotation Xrotation Yrotation
			JOINT rfoot
			{
				OFFSET 0.000000 -39.930200 0.000000
				CHANNELS 3 Zrotation Xrotation Yrotation
				JOINT rtoes
				{
					OFFSET 0.000000 0.000000 11.775800
					CHANNELS 3 Zrotation Xrotation Yrotation
					End Site
					{
					    OFFSET 0.000000 0.000000 5.000000
					}
				}
			}
		}
	}
	JOINT thorax
	{
		OFFSET 0.000000 11.255600 -5.000000
		CHANNELS 3 Zrotation Xrotation Yrotation
		JOINT head
		{
			OFFSET 0.000000 43.799300 0.000000
			CHANNELS 3 Zrotation Xrotation Yrotation
			End Site
			{
			    OFFSET 0.000000 5.000000 0.000000
			}
		}
		JOINT lclavicle
		{
			OFFSET 0.000000 39.863000 0.000000
			CHANNELS 3 Zrotation Xrotation Yrotation
			JOINT lhumerus
			{
				OFFSET 17.380600 4.958300 0.000000
				CHANNELS 3 Zrotation Xrotation Yrotation
				JOINT lradius
				{
					OFFSET 0.000000 -27.561300 0.000000
					CHANNELS 3 Zrotation Xrotation Yrotation
					JOINT lhand
					{
						OFFSET 0.000000 -26.933000 0.000000
						CHANNELS 3 Zrotation Xrotation Yrotation
						End Site
						{
						    OFFSET 0.000000 -5.000000 0.000000
						}
					}
				}
			}
		}
		JOINT rclavicle
		{
			OFFSET 0.000000 39.863000 0.000000
			CHANNELS 3 Zrotation Xrotation Yrotation
			JOINT rhumerus
			{
				OFFSET -17.380600 4.958300 0.000000
				CHANNELS 3 Zrotation Xrotation Yrotation
				JOINT rradius
				{
					OFFSET 0.000000 -27.561300 0.000000
					CHANNELS 3 Zrotation Xrotation Yrotation
					JOINT rhand
					{
						OFFSET 0.000000 -26.933000 0.000000
						CHANNELS 3 Zrotation Xrotation Yrotation
						End Site
						{
						    OFFSET 0.000000 -5.000000 0.000000
						}
					}
				}
			}
		}
	}
}
MOTION
Frames:	8
Frame Time:	0.0333333
54.989600 84.629700 -6.726100 4.115686 2.859396 -45.885819 -1.230292 -19.181850 19.489158 0.000000 43.288057 -0.000000 -0.000000 -4.166325 19.337944 0.000000 -1.336931 -0.000000 -5.796592 -27.786839 -16.704641 -0.000000 42.740181 -0.000000 -0.000000 1.819973 -13.704014 0.000000 -29.533894 -0.000000 -5.631031 9.727844 -3.868451 14.961538 18.306859 -6.582859 -10.563863 -0.000000 -0.423714 29.196706 1.342706 -12.851788 -180.000035 -52.250261 159.603790 33.077000 1.795579 -0.000000 24.412826 -0.000000 -3.517914 -41.967239 -2.088168 39.822274 180.000034 -54.874421 -171.816745 -2.932106 -2.493550 0.000000 
53.959100 85.179600 -6.672700 4.233624 2.516480 -51.575721 -0.062416 -18.798856 17.305040 -0.000000 45.640078 -0.000000 0.000000 -0.746110 17.575484 0.000000 -1.384534 0.000000 -4.514916 -25.321108 -15.559226 -0.000000 39.275471 0.000000 -0.000000 2.597424 -9.114372 -0.000000 -29.550178 0.000000 -5.850983 8.624227 -3.378592 15.671994 19.029409 -6.764545 -9.763581 -0.000000 -0.178013 29.087227 0.635015 -14.732063 -180.000034 -52.002926 159.760934 33.154929 1.153466 -0.000000 24.861515 0.000000 -3.574117 -42.685984 -1.562872 39.435428 -180.000036 -54.856088 -171.843868 -3.233904 -2.390676 0.000000 
53.075200 85.103600 -6.798800 4.236427 2.123429 -56.976311 0.950422 -18.289270 14.054519 -0.000000 48.413856 0.000000 0.000000 0.495078 14.600522 0.000000 -1.413392 -0.000000 -3.150824 -24.023295 -14.167828 -0.000000 36.440259 -0.000000 -0.000000 2.023895 -5.896455 -0.000000 -29.553644 0.000000 -5.956509 8.482059 -3.137776 16.506499 18.803199 -6.360304 -9.083757 0.000000 -0.025661 29.035234 -0.594326 -16.480055 180.000035 -51.104357 159.634394 33.636205 1.079537 0.000000 25.046198 0.000000 -3.413733 -43.472684 -0.967380 38.744696 180.000037 -54.208481 -172.065871 -2.840455 -2.522477 -0.000000 
52.458300 84.389600 -6.948200 4.156692 1.678837 -61.798165 1.060966 -17.766991 8.983019 0.000000 51.614207 -0.000000 0.000000 0.655581 11.619641 0.000000 -1.466062 0.000000 -1.925154 -24.204344 -13.161625 -0.000000 36.555890 0.000000 0.000000 -0.533170 -4.440470 0.000000 -29.546991 0.000000 -5.890768 9.190598 -3.460982 16.905144 17.974340 -4.930875 -8.605154 0.000000 0.132892 28.975030 -2.141623 -17.797775 180.000036 -49.980065 158.822244 33.597204 1.204592 -0.000000 24.834342 0.000000 -3.368059 -43.841780 -0.813642 38.064935 -180.000036 -53.282969 -172.594700 -2.955643 -2.484573 -0.000000 
52.160600 83.340400 -7.178600 3.967424 1.242699 -66.507967 1.108548 -18.124731 4.689615 -0.000000 56.421971 -0.000000 0.000000 -0.427432 9.036754 -0.000000 -1.456133 -0.000000 -0.768079 -25.889509 -10.188519 -0.000000 39.623305 -0.000000 -0.000000 -2.752567 -2.768957 -0.000000 -29.544898 -0.000000 -5.897858 10.387213 -3.532870 17.367295 16.806412 -3.490521 -8.519028 0.000000 0.450203 28.958753 -4.402291 -19.531095 180.000032 -49.042053 159.020805 33.753547 1.034410 -0.000000 24.748662 -0.000000 -3.114148 -44.238432 -0.444996 37.312799 -180.000036 -52.372716 -172.544036 -2.911925 -2.498875 -0.000000 
52.115000 82.400300 -7.269200 4.052141 0.819465 -70.466044 0.484825 -18.988469 0.495958 0.000000 60.461578 -0.000000 0.000000 -3.958339 7.370853 -0.000000 -1.442858 -0.000000 -0.373851 -28.261175 -8.694934 0.000000 43.356622 -0.000000 0.000000 -4.038861 -0.945649 -0.000000 -29.544334 -0.000000 -5.890824 12.018352 -3.907315 17.760374 15.433650 -2.041105 -8.698576 0.000000 1.044721 28.499732 -7.684364 -21.203815 180.000033 -48.933059 157.463488 34.231191 1.223109 0.000000 24.334353 -0.000000 -2.159670 -43.674738 0.232544 36.327684 180.000036 -51.876551 -172.596470 -3.317662 -2.360663 0.000000 
52.202300 81.751700 -7.284800 4.507335 0.906621 -72.969105 0.172006 -20.741210 -3.042645 -0.000000 62.844638 -0.000000 -0.000000 -6.433133 7.761829 -0.000000 -1.397224 0.000000 -0.067642 -29.915317 -8.327707 0.000000 45.129139 -0.000000 0.000000 -4.972559 0.985655 -0.000000 -29.544584 -0.000000 -5.596498 12.747296 -4.262995 18.443943 14.457009 -1.441761 -8.849865 0.000000 0.575488 27.291447 -9.918807 -23.128348 180.000033 -49.144091 157.167847 33.511575 1.349709 -0.000000 24.626074 0.000000 -2.504964 -43.432528 0.614401 35.740110 180.000036 -51.941410 -171.643787 -2.542380 -2.626155 0.000000 
52.264700 81.556800 -7.291600 4.556073 0.876772 -75.039639 0.272091 -21.825309 -4.986964 -0.000000 63.033213 0.000000 0.000000 -8.446369 8.686602 -0.000000 -1.354243 -0.000000 0.883854 -30.572814 -6.205403 0.000000 45.699234 -0.000000 0.000000 -4.835219 1.385094 -0.000000 -29.545888 -0.000000 -6.035279 13.363688 -7.835056 17.711533 14.685913 1.873803 -9.064098 0.000000 4.464729 26.867097 -12.042655 -24.994052 180.000031 -49.593597 156.613266 34.079567 1.255082 -0.000000 25.724612 -0.000000 0.520422 -42.498056 3.057209 37.218285 180.000037 -52.117421 -171.144209 -2.705141 -2.570449 -0.000000 
